<svg xmlns:dc="http://purl.org/dc/elements/1.1/" xmlns:cc="http://creativecommons.org/ns#" xmlns:rdf="http://www.w3.org/1999/02/22-rdf-syntax-ns#" xmlns:svg="http://www.w3.org/2000/svg" xmlns="http://www.w3.org/2000/svg" xmlns:sodipodi="http://sodipodi.sourceforge.net/DTD/sodipodi-0.dtd" xmlns:inkscape="http://www.inkscape.org/namespaces/inkscape" version="1.1" x="0px" y="0px" viewBox="0 0 100 125"><g transform="translate(0,-952.36218)"><path style="text-indent:0;text-transform:none;direction:ltr;block-progression:tb;baseline-shift:baseline;color:#ff5d00;enable-background:accumulate;" d="m 31.484377,962.21477 c -5.963882,0.20644 -12.038492,2.30649 -18.062468,6.40625 -0.537201,0.36555 -0.875799,1.00644 -0.875019,1.65625 l 0,7.28125 -5.1250038,0.96875 c -0.906485,0.17311 -1.626874,1.04591 -1.624996,1.96875 l 0,50.03118 c -0.01098,0.8976 0.658594,1.7584 1.531311,1.9688 l 42.4061908,9.9687 c 0.296787,0.069 0.609413,0.069 0.906201,0 l 41.999985,-9.9687 c 0.88402,-0.1982 1.57033,-1.0629 1.5626,-1.9688 l 0,-50.03118 c 0,-0.92284 -0.71848,-1.79564 -1.625,-1.96875 l -5.15629,-1 0,-7.25 c 7.1e-4,-0.64981 -0.33778,-1.2907 -0.87498,-1.65625 -6.425611,-4.37307 -12.904017,-6.45467 -19.250008,-6.40625 -5.935111,0.0453 -11.747197,2.00072 -17.312492,5.6875 -5.565331,-3.68678 -11.377417,-5.64222 -17.312527,-5.6875 -0.396603,-0.003 -0.789874,-0.0138 -1.187504,0 z m 1.562527,3.8125 c 5.033906,0.12635 9.959598,1.9464 14.937484,5.3125 l 0,49.03123 c -10.239696,-5.066 -20.933291,-5.4172 -31.437495,-0.062 l 0,-48.93748 c 5.736791,-3.72305 11.181118,-5.47725 16.500011,-5.34375 z m 34.281283,0 c 5.189598,-0.0387 10.502397,1.71515 16.0937,5.34375 l 0,48.93748 c -10.512495,-5.3574 -21.215798,-5.0098 -31.437495,0.062 l 0,-49.03123 c 5.112815,-3.45839 10.167697,-5.27391 15.343795,-5.3125 z m -36.374987,9.375 c -2.69302,-0.0202 -5.389689,0.75407 -7.968792,2.34375 -1.022031,0.47549 -1.450098,1.91015 -0.855921,2.86798 0.594213,0.95782 2.069823,1.21146 2.949697,0.50702 4.096524,-2.52499 7.652303,-2.39047 11.812393,0.0312 0.901099,0.66422 2.352721,0.36343 2.915717,-0.60419 0.56289,-0.96761 0.107114,-2.37816 -0.915697,-2.83331 -2.547319,-1.48286 -5.244519,-2.29227 -7.937397,-2.3125 z m 37.406196,0 c -2.697804,-0.02 -5.404713,0.74971 -7.968792,2.34375 -0.973027,0.51152 -1.347626,1.90596 -0.761917,2.83618 0.585709,0.93023 2.005122,1.19514 2.886909,0.53882 4.047591,-2.51627 7.625481,-2.38797 11.781284,0.0312 0.901098,0.66422 2.35272,0.36343 2.915716,-0.60419 0.56289,-0.96761 0.107079,-2.37816 -0.915697,-2.83331 -2.549515,-1.48411 -5.2397,-2.2925 -7.937503,-2.3125 z m -55.812506,6.21875 0,42.09368 c -0.01701,1.4286 1.852015,2.4776 3.062515,1.7188 11.361472,-7.0231 22.021192,-6.6266 33.124995,-0.1563 0.94011,0.4419 1.745185,0.3993 2.49998,0.031 11.075209,-6.488 21.752397,-6.905 33.124998,0.125 1.2105,0.7588 3.0797,-0.2902 3.06251,-1.7188 l 0,-42.09368 2.75,0.53125 0,46.81243 -40.000004,9.5 -40.3749898,-9.5 0,-46.81243 z m 18.718688,3.9375 c -2.701701,-0.0203 -5.418674,0.72149 -7.999973,2.3125 -0.928098,0.53004 -1.271799,1.87378 -0.712098,2.78438 0.559701,0.9105 1.913882,1.2107 2.805874,0.6219 4.092307,-2.52235 7.687913,-2.38799 11.843822,0.031 0.908079,0.5236 2.210776,0.1737 2.734406,-0.7344 0.523594,-0.9081 0.173693,-2.21078 -0.734421,-2.73438 -2.549481,-1.48411 -5.235803,-2.261 -7.93761,-2.28125 z m 37.406302,0 c -2.701772,-0.0203 -5.418673,0.72149 -7.999972,2.3125 -0.891815,0.55633 -1.19693,1.87388 -0.64063,2.76558 0.556299,0.8918 1.873807,1.197 2.765622,0.6407 4.0922,-2.52234 7.656696,-2.388 11.812499,0.031 0.908079,0.5236 2.210776,0.1737 2.734406,-0.7344 0.523594,-0.9081 0.173693,-2.21078 -0.734421,-2.73438 -2.549481,-1.48411 -5.235697,-2.261 -7.937504,-2.28125 z M 31.578204,995.6523 c -2.706804,-0.02 -5.418426,0.7616 -8.000008,2.375 -0.972992,0.5115 -1.347591,1.9059 -0.761917,2.8361 0.585708,0.9303 2.005122,1.1952 2.886909,0.5389 4.091315,-2.5569 7.65861,-2.4224 11.812393,0.031 0.901099,0.6103 2.289898,0.2984 2.843611,-0.6386 0.553712,-0.937 0.157003,-2.304 -0.812304,-2.7989 -2.550507,-1.5066 -5.261988,-2.3236 -7.968684,-2.3438 z m 37.406195,0 c -2.702799,-0.02 -5.418318,0.7616 -8.000007,2.375 -0.972992,0.5115 -1.347591,1.9059 -0.761882,2.8361 0.585673,0.9303 2.005086,1.1952 2.886874,0.5389 4.091421,-2.5569 7.640893,-2.4169 11.749996,0.031 0.899929,0.5399 2.209996,0.2124 2.749996,-0.6875 0.54,-0.9 0.212421,-2.2101 -0.687473,-2.75 -2.533323,-1.5093 -5.234704,-2.3233 -7.937504,-2.3438 z M 31.8594,1005.8085 c -2.702799,-0.02 -5.404322,0.7273 -7.968791,2.3438 -0.891815,0.5563 -1.196929,1.8738 -0.64063,2.7655 0.5563,0.8918 1.873807,1.197 2.765622,0.6407 4.046776,-2.5507 7.596284,-2.4223 11.749996,0.031 0.908079,0.5318 2.218181,0.1894 2.749996,-0.7187 0.531815,-0.9081 0.18939,-2.2182 -0.718689,-2.75 -2.550508,-1.5065 -5.234704,-2.2925 -7.937504,-2.3125 z m 37.406196,0 c -2.702799,-0.02 -5.404287,0.7273 -7.96872,2.3438 -0.891779,0.5563 -1.196894,1.8738 -0.640594,2.7655 0.556299,0.8918 1.873807,1.197 2.765622,0.6407 4.046704,-2.5507 7.627393,-2.4223 11.781283,0.031 0.908114,0.5318 2.218216,0.1894 2.749996,-0.7188 0.531708,-0.9081 0.189319,-2.2181 -0.718796,-2.7499 -2.550507,-1.5065 -5.265992,-2.2925 -7.968791,-2.3125 z" fill="#ff5d00" fill-opacity="1" fill-rule="evenodd" stroke="none" marker="none" visibility="visible" display="inline" overflow="visible"/></g></svg>